<svg width="15" height="19" viewBox="0 0 15 19" fill="none" xmlns="http://www.w3.org/2000/svg">
    <path
    fill-rule="evenodd"
    clip-rule="evenodd"
    d="M5.52615 4.60208C5.52617 4.60207 5.52618 4.60205 5.5262 4.60204L5.52585 4.60208H5.52615ZM5.52615 4.60208H7.04355C6.84697 4.85942 6.69995 5.1449 6.60277 5.45796C6.4618 5.91185 6.42758 6.42118 6.50043 6.9848C6.52211 7.15793 6.68049 7.28018 6.85346 7.2585C7.02659 7.23682 7.14884 7.07844 7.12716 6.90547C7.06596 6.43282 7.09265 6.01183 7.20709 5.64375C7.26784 5.44849 7.35396 5.26681 7.46603 5.0987C7.67808 5.50321 7.99985 5.78781 8.31351 6.06475C8.73289 6.43562 9.13444 6.79085 9.06056 7.44885C9.04154 7.62242 9.16688 7.77917 9.34045 7.7982C9.51402 7.81722 9.67077 7.69188 9.6898 7.51831C9.80025 6.53603 9.27778 6.07373 8.73201 5.59138C8.41525 5.31135 8.08788 5.02172 7.94204 4.60204H9.4742C10.6124 5.35808 11.8291 6.63263 12.8264 8.09503C14.0791 9.93275 15 12.0826 15 13.8924C15 16.0058 14.369 17.2549 13.0734 17.9839C11.8291 18.6845 9.98723 18.865 7.5002 18.865C5.01316 18.865 3.17118 18.6845 1.92702 17.9839C0.631407 17.2545 0.00039959 16.0056 0.00039959 13.8924C0.00039959 12.083 0.921295 9.93275 2.17402 8.09503C3.17132 6.6325 4.38805 5.35812 5.52615 4.60208ZM11.4766 0.635369L8.74995 3.96779L8.74996 3.9679H6.25058L3.59977 0.717492C3.55258 0.662047 3.52383 0.590083 3.52383 0.511485C3.52383 0.336445 3.66583 0.194437 3.84087 0.194437L11.2202 0.13501C11.284 0.13501 11.3488 0.15418 11.4047 0.194437C11.5462 0.296346 11.5785 0.493803 11.4766 0.635369ZM7.29204 16.8842C7.18158 16.8842 7.09204 16.7946 7.09204 16.6842V12.0892C7.09204 11.9787 7.0025 11.8892 6.89204 11.8892H5.11231C5.00186 11.8892 4.91231 11.7996 4.91231 11.6892V11.2775C4.91231 11.167 5.00186 11.0775 5.11231 11.0775H10.0015C10.112 11.0775 10.2015 11.167 10.2015 11.2775V11.6892C10.2015 11.7996 10.112 11.8892 10.0015 11.8892H8.22178C8.11132 11.8892 8.02178 11.9787 8.02178 12.0892V16.6842C8.02178 16.7946 7.93224 16.8842 7.82178 16.8842H7.29204ZM10.0015 9.45411C10.112 9.45411 10.2015 9.54366 10.2015 9.65411V10.0658C10.2015 10.1763 10.112 10.2658 10.0015 10.2658H5.11231C5.00186 10.2658 4.91231 10.1763 4.91231 10.0658V9.65411C4.91231 9.54366 5.00186 9.45411 5.11231 9.45411H10.0015Z"
    fill="#999999"
  />
    </svg>
