<svg width="16" height="21" viewBox="0 0 16 21" fill="none" xmlns="http://www.w3.org/2000/svg">
                <path
    d="M0 3.44531V2.29688C0 1.75137 0.382143 1.3125 0.857143 1.3125H4.85714L5.19286 0.545508C5.33571 0.20918 5.63214 0 5.95714 0H10.0393C10.3643 0 10.6607 0.20918 10.8071 0.545508L11.1429 1.3125H15.1429C15.6179 1.3125 16 1.75137 16 2.29688V3.44531C16 3.71602 15.8071 3.9375 15.5714 3.9375H0.428571C0.192857 3.9375 0 3.71602 0 3.44531ZM14.8571 5.74219V19.0312C14.8571 20.1182 14.0893 21 13.1429 21H2.85714C1.91071 21 1.14286 20.1182 1.14286 19.0312V5.74219C1.14286 5.47148 1.33571 5.25 1.57143 5.25H14.4286C14.6643 5.25 14.8571 5.47148 14.8571 5.74219ZM5.14286 8.53125C5.14286 8.17031 4.88571 7.875 4.57143 7.875C4.25714 7.875 4 8.17031 4 8.53125V17.7188C4 18.0797 4.25714 18.375 4.57143 18.375C4.88571 18.375 5.14286 18.0797 5.14286 17.7188V8.53125ZM8.57143 8.53125C8.57143 8.17031 8.31429 7.875 8 7.875C7.68571 7.875 7.42857 8.17031 7.42857 8.53125V17.7188C7.42857 18.0797 7.68571 18.375 8 18.375C8.31429 18.375 8.57143 18.0797 8.57143 17.7188V8.53125ZM12 8.53125C12 8.17031 11.7429 7.875 11.4286 7.875C11.1143 7.875 10.8571 8.17031 10.8571 8.53125V17.7188C10.8571 18.0797 11.1143 18.375 11.4286 18.375C11.7429 18.375 12 18.0797 12 17.7188V8.53125Z"
    fill="#DD5C5C"
  />
              </svg>
