<svg width="20" height="20" viewBox="0 0 20 20" fill="none" xmlns="http://www.w3.org/2000/svg">
  <mask id="path-1-inside-1_3784_51740" fill="white">
  <path
      d="M17.7778 0H2.22222C1 0 0 1 0 2.22222V17.7778C0 19 1 20 2.22222 20H17.7778C19 20 20 19 20 17.7778V2.22222C20 1 19 0 17.7778 0Z"
    />
  </mask>
  <path
    d="M17.7778 0H2.22222C1 0 0 1 0 2.22222V17.7778C0 19 1 20 2.22222 20H17.7778C19 20 20 19 20 17.7778V2.22222C20 1 19 0 17.7778 0Z"
    fill="#3F8CE4"
  />
  <path
    d="M17.7778 -2H2.22222V2H17.7778V-2ZM2.22222 -2C-0.104569 -2 -2 -0.104569 -2 2.22222H2C2 2.16733 2.02065 2.11333 2.06699 2.06699C2.11333 2.02065 2.16733 2 2.22222 2V-2ZM-2 2.22222V17.7778H2V2.22222H-2ZM-2 17.7778C-2 20.1046 -0.104569 22 2.22222 22V18C2.16733 18 2.11333 17.9794 2.06699 17.933C2.02065 17.8867 2 17.8327 2 17.7778H-2ZM2.22222 22H17.7778V18H2.22222V22ZM17.7778 22C20.1046 22 22 20.1046 22 17.7778H18C18 17.8327 17.9794 17.8867 17.933 17.933C17.8867 17.9794 17.8327 18 17.7778 18V22ZM22 17.7778V2.22222H18V17.7778H22ZM22 2.22222C22 -0.104569 20.1046 -2 17.7778 -2V2C17.8327 2 17.8867 2.02065 17.933 2.06699C17.9794 2.11333 18 2.16733 18 2.22222H22Z"
    fill="#3F8CE4"
    mask="url(#path-1-inside-1_3784_51740)"
  />
  <path
    d="M5 11L8 14L15 7"
    stroke="white"
    stroke-width="2"
    stroke-linecap="round"
    stroke-linejoin="round"
  />
  </svg>
