<svg width="19" height="12" viewBox="0 0 19 12" fill="none" xmlns="http://www.w3.org/2000/svg">
<path
    d="M9.5 11.5C4.34091 11.5 0.269642 6.49495 0.0986192 6.2795C-0.0328731 6.11479 -0.0328731 5.88522 0.0986192 5.7205C0.269767 5.50504 4.34113 0.5 9.5 0.5C14.6589 0.5 18.7304 5.50505 18.9014 5.7205C19.0329 5.88521 19.0329 6.11478 18.9014 6.2795C18.7302 6.49496 14.6589 11.5 9.5 11.5ZM1.0911 6C2.01283 7.03573 5.47591 10.5833 9.5 10.5833C13.5241 10.5833 16.987 7.03573 17.9089 6C16.9872 4.96427 13.5241 1.41667 9.5 1.41667C5.47591 1.41667 2.01299 4.96427 1.0911 6ZM9.5 2.79167C9.30234 2.79126 9.10489 2.80988 8.91081 2.84671C9.28535 3.19107 9.49805 3.66762 9.5 4.16666C9.5 4.65281 9.2998 5.11915 8.9435 5.46308C8.58699 5.80683 8.10364 5.99999 7.59975 5.99999C7.08248 5.99815 6.58854 5.79292 6.23161 5.43155C6.19344 5.61877 6.17414 5.80927 6.17456 5.99999C6.17456 6.85097 6.52492 7.66696 7.14863 8.26856C7.77214 8.87031 8.61791 9.20832 9.50001 9.20832C10.3821 9.20832 11.2278 8.8703 11.8514 8.26856C12.4751 7.66701 12.8255 6.85102 12.8255 5.99999C12.8255 5.14896 12.4751 4.33302 11.8514 3.73142C11.2279 3.12967 10.3821 2.79167 9.5 2.79167Z"
    fill="#767676"
  />
</svg>
