<svg width="16" height="17" viewBox="0 0 16 17" fill="none" xmlns="http://www.w3.org/2000/svg">
        <path
    fill-rule="evenodd"
    clip-rule="evenodd"
    d="M16 8.5C16 12.9183 12.4183 16.5 8 16.5C3.58172 16.5 0 12.9183 0 8.5C0 4.08172 3.58172 0.5 8 0.5C12.4183 0.5 16 4.08172 16 8.5ZM6.33864 6.92904L8.68585 6.92893C8.79095 6.91952 8.89541 6.95276 8.97567 7.02124C9.05594 7.08973 9.10525 7.18771 9.11265 7.2929C9.15051 7.48323 9.1123 7.6635 9.07408 7.84383C9.06474 7.8879 9.0554 7.93197 9.04717 7.97619C8.89357 8.79841 8.74218 9.62004 8.59297 10.4412C8.5767 10.5304 8.55974 10.6195 8.54276 10.7086C8.50237 10.9208 8.46192 11.1333 8.43061 11.3472C8.41637 11.4701 8.42029 11.5945 8.44239 11.7163C8.45107 11.8253 8.50722 11.925 8.59589 11.989C8.68466 12.053 8.79698 12.0748 8.90317 12.0488C9.03485 12.0189 9.16306 11.9751 9.28543 11.918C9.32967 11.8986 9.37228 11.8743 9.41482 11.8501C9.47298 11.8169 9.53104 11.7839 9.59306 11.7635C9.66136 11.739 9.73706 11.7472 9.79861 11.7856C9.84947 11.8549 9.86938 11.9421 9.85358 12.0265C9.82117 12.1232 9.76491 12.2102 9.68995 12.2792C9.27721 12.718 8.70175 12.9671 8.09943 12.9678C7.81829 12.9711 7.53739 12.9531 7.25898 12.9141C6.789 12.8356 6.19727 12.2399 6.30073 11.605C6.335 11.3958 6.36723 11.1862 6.39946 10.9767C6.43982 10.7143 6.48018 10.4519 6.52454 10.19C6.56678 9.93944 6.61154 9.68945 6.65627 9.43955C6.73638 8.99203 6.81644 8.5448 6.88195 8.09538C6.93693 7.721 6.79026 7.56129 6.42638 7.54431C6.28804 7.53207 6.1529 7.49573 6.02716 7.43692C5.92379 7.39081 5.86855 7.27703 5.89622 7.16727C5.9111 7.06628 5.98744 6.9852 6.08734 6.96438C6.16925 6.94164 6.25362 6.92977 6.33864 6.92904ZM7.36035 4.33159C7.59321 4.11682 7.90213 4.00386 8.21853 4.01774V4.02029C8.52943 4.03126 8.82338 4.16466 9.03623 4.39158C9.24909 4.6184 9.3636 4.92028 9.35483 5.23121C9.34791 5.54789 9.21486 5.84868 8.9852 6.06692C8.75555 6.28507 8.44836 6.40259 8.13178 6.39337C7.81509 6.38406 7.51531 6.24882 7.2988 6.01762C7.0823 5.78642 6.96706 5.47832 6.97857 5.16183C6.99016 4.84524 7.12759 4.54646 7.36035 4.33159Z"
    fill="#999999"
  />
      </svg>
