<svg width="19" height="15" viewBox="0 0 19 15" fill="none" xmlns="http://www.w3.org/2000/svg">
    <path
    fill-rule="evenodd"
    clip-rule="evenodd"
    d="M9.16773 5.36477C7.43713 5.36477 6.03083 6.77012 6.03083 8.4999C6.03083 10.2295 7.43696 11.635 9.16773 11.635C10.8983 11.635 12.3046 10.2297 12.3046 8.4999C12.3046 6.77028 10.8985 5.36477 9.16773 5.36477ZM4.43548 3.3378H1.32573V4.71617H4.43548V3.3378ZM16.9561 2.41887H13.3056V2.31077C13.3056 1.31085 12.4943 0.5 11.4938 0.5H6.35579C5.3823 0.5 4.57098 1.31085 4.57098 2.31077V2.41887H1.35305C0.622886 2.41887 0.000902176 3.01352 0.000902176 3.77025L0.00094223 6.28375H5.08495C5.85555 4.86173 7.59971 3.85135 9.16814 3.85135C10.7096 3.85135 12.4417 4.83964 13.2243 6.28375H18.3083L18.3084 3.77025C18.3084 3.01352 17.7133 2.41887 16.9561 2.41887ZM18.3083 6.28375H13.2243C13.5758 6.93236 13.7921 7.66211 13.7921 8.44582C13.7921 9.25668 13.5758 9.98643 13.2243 10.635H18.3083V6.28375ZM5.08495 6.28375H0.00094223V10.6352H5.08495C4.73345 9.98659 4.54411 9.25684 4.54411 8.44599C4.54411 7.66228 4.73344 6.9324 5.08495 6.28375ZM0.00094223 10.6352V13.1486C0.00094223 13.9054 0.622926 14.5 1.35309 14.5H16.9564C17.7136 14.5 18.3086 13.9054 18.3086 13.1486L18.3083 10.635H13.2243C12.3855 12.3462 10.7098 13.0675 9.16835 13.0675C7.59987 13.0675 5.92398 12.1835 5.08495 10.6352H0.00094223Z"
    fill="#989898"
  />
  </svg>
