<svg xmlns="http://www.w3.org/2000/svg" viewBox="0 0 39 42">
    <path
    d="M22.1653 25.7862H0.884766V21.3281H22.1653C24.241 21.3281 25.9453 20.9968 27.2783 20.3343C28.6113 19.6717 29.592 18.7347 30.2205 17.5231C30.8679 16.3116 31.1917 14.8824 31.1917 13.2354C31.1917 11.8914 30.887 10.6041 30.2776 9.37366C29.6873 8.14319 28.7256 7.1304 27.3926 6.33534C26.0786 5.54025 24.3362 5.14274 22.1653 5.14274H12.282V42H6.79762V0.65625H22.1653C25.3074 0.65625 27.9543 1.19576 30.1062 2.27479C32.2581 3.3349 33.8864 4.81146 34.9907 6.70449C36.1142 8.57856 36.6762 10.7366 36.6762 13.1786C36.6762 15.8289 36.1142 18.1005 34.9907 19.9936C33.8864 21.8676 32.2581 23.3063 30.1062 24.3096C27.9543 25.294 25.3074 25.7862 22.1653 25.7862ZM21.8225 29.6764V34.1628H0.884766V29.6764H21.8225Z"
    fill="black"
  />
    </svg>
